<?xml version="1.0" encoding="UTF-8" standalone="no"?> <svg width="1119.72mm" height="1137.36mm"  viewBox="0 0 3174.94 3224.94"  xmlns="http://www.w3.org/2000/svg" xmlns:xlink="http://www.w3.org/1999/xlink"  version="1.2" baseProfile="tiny"> <title>Generated with ETE http://etetoolkit.org</title> <desc>Generated with ETE http://etetoolkit.org</desc> <defs> </defs> <g fill="none" stroke="black" stroke-width="1" fill-rule="evenodd" stroke-linecap="square" stroke-linejoin="bevel" >      <g fill="none" stroke="none" transform="matrix(1,0,0,1,0,0)" font-family="Ubuntu" font-size="11pt" font-weight="400" font-style="normal"  > <rect x="0" y="0" width="3174.94" height="3224.94"/> </g>      <g fill="none" stroke="none" transform="matrix(1,0,0,1,1587.47,1587.47)" font-family="Ubuntu" font-size="11pt" font-weight="400" font-style="normal"  > <rect x="-1586.47" y="-1586.47" width="3172.94" height="3172.94"/> </g>      <g fill="#5caf94" fill-opacity="1" stroke="#5caf94" stroke-opacity="1" stroke-width="1" stroke-linecap="square" stroke-linejoin="bevel" transform="matrix(1,0,0,1,1587.47,1587.47)" font-family="Ubuntu" font-size="11pt" font-weight="400" font-style="normal"  > <path vector-effect="none" fill-rule="evenodd" d="M-1586.41,-13.846 C-1578.94,-883.693 -871.539,-1586.47 0,-1586.47 C876.183,-1586.47 1586.47,-876.183 1586.47,0 C1586.47,876.183 876.183,1586.47 0,1586.47 C-871.563,1586.47 -1578.98,883.654 -1586.41,13.9176 L-164.08,1.43947 C-163.307,91.399 -90.142,164.086 0,164.086 C90.6223,164.086 164.086,90.6223 164.086,0 C164.086,-90.6223 90.6223,-164.086 0,-164.086 C-90.1444,-164.086 -163.311,-91.395 -164.08,-1.43207 "/> </g>                              <g fill="none" stroke="#000000" stroke-opacity="1" stroke-width="18" stroke-linecap="butt" stroke-linejoin="bevel" transform="matrix(1,0,0,1,1587.47,1578.47)" font-family="Ubuntu" font-size="11pt" font-weight="400" font-style="normal"  > <path vector-effect="none" fill-rule="evenodd" d=""/> </g>            <g fill="none" stroke="#000000" stroke-opacity="1" stroke-width="18" stroke-linecap="butt" stroke-linejoin="bevel" transform="matrix(1,0,0,1,1587.47,1578.47)" font-family="Ubuntu" font-size="11pt" font-weight="400" font-style="normal"  > <polyline fill="none" vector-effect="none" points="0,9 6.48683,9 " /> </g>      <g fill="#0030c1" fill-opacity="1" stroke="#0030c1" stroke-opacity="1" stroke-width="1" stroke-linecap="square" stroke-linejoin="bevel" transform="matrix(1,0,0,1,1593.96,1585.97)" font-family="Ubuntu" font-size="11pt" font-weight="400" font-style="normal"  > <circle cx="1.5" cy="1.5" r="1.5"/> </g>                  <g fill="none" stroke="#000000" stroke-opacity="1" stroke-width="18" stroke-linecap="butt" stroke-linejoin="bevel" transform="matrix(1,0,0,1,1600.55,1572.47)" font-family="Ubuntu" font-size="11pt" font-weight="400" font-style="normal"  > <path vector-effect="none" fill-rule="evenodd" d=""/> </g>            <g fill="none" stroke="#000000" stroke-opacity="1" stroke-width="18" stroke-linecap="butt" stroke-linejoin="bevel" transform="matrix(1,0,0,1,1600.55,1572.47)" font-family="Ubuntu" font-size="11pt" font-weight="400" font-style="normal"  > <polyline fill="none" vector-effect="none" points="-18,15 6.48683,15 " /> </g>      <g fill="#808080" fill-opacity="1" stroke="#808080" stroke-opacity="1" stroke-width="1" stroke-linecap="square" stroke-linejoin="bevel" transform="matrix(1,0,0,1,1607.03,1572.47)" font-family="Ubuntu" font-size="11pt" font-weight="400" font-style="normal"  > <circle cx="15" cy="15" r="15"/> </g>                  <g fill="none" stroke="#000000" stroke-opacity="1" stroke-width="18" stroke-linecap="butt" stroke-linejoin="bevel" transform="matrix(1,0,0,1,1639.25,1572.47)" font-family="Ubuntu" font-size="11pt" font-weight="400" font-style="normal"  > <path vector-effect="none" fill-rule="evenodd" d=""/> </g>            <g fill="none" stroke="#000000" stroke-opacity="1" stroke-width="18" stroke-linecap="butt" stroke-linejoin="bevel" transform="matrix(1,0,0,1,1639.25,1572.47)" font-family="Ubuntu" font-size="11pt" font-weight="400" font-style="normal"  > <polyline fill="none" vector-effect="none" points="-18,15 6.48683,15 " /> </g>      <g fill="#808080" fill-opacity="1" stroke="#808080" stroke-opacity="1" stroke-width="1" stroke-linecap="square" stroke-linejoin="bevel" transform="matrix(1,0,0,1,1645.74,1572.47)" font-family="Ubuntu" font-size="11pt" font-weight="400" font-style="normal"  > <circle cx="15" cy="15" r="15"/> </g>                  <g fill="none" stroke="#000000" stroke-opacity="1" stroke-width="18" stroke-linecap="butt" stroke-linejoin="bevel" transform="matrix(1,0,0,1,1677.01,1572.47)" font-family="Ubuntu" font-size="11pt" font-weight="400" font-style="normal"  > <path vector-effect="none" fill-rule="evenodd" d=""/> </g>            <g fill="none" stroke="#000000" stroke-opacity="1" stroke-width="18" stroke-linecap="butt" stroke-linejoin="bevel" transform="matrix(1,0,0,1,1677.01,1572.47)" font-family="Ubuntu" font-size="11pt" font-weight="400" font-style="normal"  > <polyline fill="none" vector-effect="none" points="-18,15 6.48683,15 " /> </g>      <g fill="#808080" fill-opacity="1" stroke="#808080" stroke-opacity="1" stroke-width="1" stroke-linecap="square" stroke-linejoin="bevel" transform="matrix(1,0,0,1,1683.49,1572.47)" font-family="Ubuntu" font-size="11pt" font-weight="400" font-style="normal"  > <circle cx="15" cy="15" r="15"/> </g>                  <g fill="none" stroke="#000000" stroke-opacity="1" stroke-width="18" stroke-linecap="butt" stroke-linejoin="bevel" transform="matrix(1,0,0,1,1714.38,1572.47)" font-family="Ubuntu" font-size="11pt" font-weight="400" font-style="normal"  > <path vector-effect="none" fill-rule="evenodd" d=""/> </g>            <g fill="none" stroke="#000000" stroke-opacity="1" stroke-width="18" stroke-linecap="butt" stroke-linejoin="bevel" transform="matrix(1,0,0,1,1714.38,1572.47)" font-family="Ubuntu" font-size="11pt" font-weight="400" font-style="normal"  > <polyline fill="none" vector-effect="none" points="-18,15 6.48683,15 " /> </g>      <g fill="#808080" fill-opacity="1" stroke="#808080" stroke-opacity="1" stroke-width="1" stroke-linecap="square" stroke-linejoin="bevel" transform="matrix(1,0,0,1,1720.87,1572.47)" font-family="Ubuntu" font-size="11pt" font-weight="400" font-style="normal"  > <circle cx="15" cy="15" r="15"/> </g>                        <g fill="none" stroke="#000000" stroke-opacity="1" stroke-width="18" stroke-linecap="butt" stroke-linejoin="bevel" transform="matrix(1,0,0,1,1751.56,1512.47)" font-family="Ubuntu" font-size="11pt" font-weight="400" font-style="normal"  > <polyline fill="none" vector-effect="none" points="-18,75 6.48683,75 " /> </g>      <g fill="#ff0000" fill-opacity="1" stroke="#ff0000" stroke-opacity="1" stroke-width="1" stroke-linecap="square" stroke-linejoin="bevel" transform="matrix(1,0,0,1,1758.04,1575.41)" font-family="Ubuntu" font-size="11pt" font-weight="400" font-style="normal"  > <rect x="0" y="0" width="24.1234" height="24.1234"/> </g>          <g fill="none" stroke="#000000" stroke-opacity="1" stroke-width="1" stroke-linecap="square" stroke-linejoin="bevel" transform="matrix(1,0,0,1,1782.17,1512.47)" font-family="Arial" font-size="100pt" font-weight="400" font-style="normal"  > <text fill="#000000" fill-opacity="1" stroke="none" xml:space="preserve" x="0" y="121" font-family="Arial" font-size="100pt" font-weight="400" font-style="normal"   >Enterobacteriaceae  (f) </text> </g>                                      <g fill="none" stroke="#000000" stroke-opacity="1" stroke-width="1" stroke-linecap="square" stroke-linejoin="bevel" transform="matrix(1,0,0,1,1,3174.94)" font-family="Ubuntu" font-size="11pt" font-weight="400" font-style="normal"  > <polyline fill="none" vector-effect="none" points="0,5 50,5 " /> </g>      <g fill="none" stroke="#000000" stroke-opacity="1" stroke-width="1" stroke-linecap="square" stroke-linejoin="bevel" transform="matrix(1,0,0,1,1,3174.94)" font-family="Ubuntu" font-size="11pt" font-weight="400" font-style="normal"  > <polyline fill="none" vector-effect="none" points="0,0 0,10 " /> </g>      <g fill="none" stroke="#000000" stroke-opacity="1" stroke-width="1" stroke-linecap="square" stroke-linejoin="bevel" transform="matrix(1,0,0,1,1,3174.94)" font-family="Ubuntu" font-size="11pt" font-weight="400" font-style="normal"  > <polyline fill="none" vector-effect="none" points="50,0 50,10 " /> </g>      <g fill="none" stroke="#000000" stroke-opacity="1" stroke-width="1" stroke-linecap="square" stroke-linejoin="bevel" transform="matrix(1,0,0,1,1,3184.94)" font-family="Ubuntu" font-size="11pt" font-weight="400" font-style="normal"  > <text fill="#000000" fill-opacity="1" stroke="none" xml:space="preserve" x="0" y="14" font-family="Ubuntu" font-size="11pt" font-weight="400" font-style="normal"   >7.70792</text> </g>     </g> </svg> 