<?xml version="1.0" encoding="UTF-8" standalone="no"?> <svg width="1654.53mm" height="1672.17mm"  viewBox="0 0 4690.16 4740.16"  xmlns="http://www.w3.org/2000/svg" xmlns:xlink="http://www.w3.org/1999/xlink"  version="1.2" baseProfile="tiny"> <title>Generated with ETE http://etetoolkit.org</title> <desc>Generated with ETE http://etetoolkit.org</desc> <defs> <radialGradient gradientUnits="userSpaceOnUse" cx="31.8264" cy="31.8264" r="31.8264" fx="21.2176" fy="21.2176" id="gradient1">     <stop offset="0.05" stop-color="#ffffff" stop-opacity="1" />     <stop offset="1" stop-color="#0000ff" stop-opacity="1" /> </radialGradient> </defs> <g fill="none" stroke="black" stroke-width="1" fill-rule="evenodd" stroke-linecap="square" stroke-linejoin="bevel" >      <g fill="none" stroke="none" transform="matrix(1,0,0,1,0,0)" font-family="Ubuntu" font-size="11pt" font-weight="400" font-style="normal"  > <rect x="0" y="0" width="4690.16" height="4740.16"/> </g>      <g fill="none" stroke="none" transform="matrix(1,0,0,1,2345.08,2345.08)" font-family="Ubuntu" font-size="11pt" font-weight="400" font-style="normal"  > <rect x="-2344.08" y="-2344.08" width="4688.16" height="4688.16"/> </g>      <g fill="#5caf94" fill-opacity="1" stroke="#5caf94" stroke-opacity="1" stroke-width="1" stroke-linecap="square" stroke-linejoin="bevel" transform="matrix(1,0,0,1,2345.08,2345.08)" font-family="Ubuntu" font-size="11pt" font-weight="400" font-style="normal"  > <path vector-effect="none" fill-rule="evenodd" d="M10.2286,-2344.06 C1300.15,-2338.52 2344.08,-1291.17 2344.08,0 C2344.08,1294.6 1294.6,2344.08 0,2344.08 C-1294.6,2344.08 -2344.08,1294.6 -2344.08,0 C-2344.08,-1284.36 -1311.15,-2327.46 -30.8428,-2343.88 L-3.08511,-234.451 C-131.158,-232.8 -234.471,-128.465 -234.471,0 C-234.471,129.495 -129.495,234.471 0,234.471 C129.495,234.471 234.471,129.495 234.471,0 C234.471,-129.154 130.047,-233.918 1.02313,-234.469 "/> </g>      <g fill="#5caf94" fill-opacity="1" stroke="#5caf94" stroke-opacity="1" stroke-width="1" stroke-linecap="square" stroke-linejoin="bevel" transform="matrix(1,0,0,1,2345.08,2345.08)" font-family="Ubuntu" font-size="11pt" font-weight="400" font-style="normal"  > <path vector-effect="none" fill-rule="evenodd" d="M10.2286,-2344.06 C1300.15,-2338.52 2344.08,-1291.17 2344.08,0 C2344.08,1291.19 1300.12,2338.55 10.2829,2344.06 L1.41669,322.945 C179.124,322.182 322.948,177.887 322.948,0 C322.948,-177.889 179.12,-322.186 1.40921,-322.945 "/> </g>      <g fill="#5caf94" fill-opacity="1" stroke="#5caf94" stroke-opacity="1" stroke-width="1" stroke-linecap="square" stroke-linejoin="bevel" transform="matrix(1,0,0,1,2345.08,2345.08)" font-family="Ubuntu" font-size="11pt" font-weight="400" font-style="normal"  > <path vector-effect="none" fill-rule="evenodd" d="M10.2286,-2344.06 C1300.15,-2338.52 2344.08,-1291.17 2344.08,0 C2344.08,1291.19 1300.12,2338.55 10.2829,2344.06 L1.55078,353.513 C196.079,352.677 353.516,194.724 353.516,0 C353.516,-194.727 196.074,-352.682 1.54259,-353.513 "/> </g>      <g fill="#5caf94" fill-opacity="1" stroke="#5caf94" stroke-opacity="1" stroke-width="1" stroke-linecap="square" stroke-linejoin="bevel" transform="matrix(1,0,0,1,2345.08,2345.08)" font-family="Ubuntu" font-size="11pt" font-weight="400" font-style="normal"  > <path vector-effect="none" fill-rule="evenodd" d="M10.2829,2344.06 C6.82076,2344.08 3.41123,2344.08 0,2344.08 C-1294.6,2344.08 -2344.08,1294.6 -2344.08,0 C-2344.08,-1284.36 -1311.15,-2327.46 -30.8428,-2343.88 L-4.24926,-322.921 C-180.65,-320.646 -322.948,-176.941 -322.948,0 C-322.948,178.359 -178.359,322.948 0,322.948 C0.472466,322.948 0.944695,322.947 1.41669,322.945 "/> </g>                                          <g fill="none" stroke="#000000" stroke-opacity="1" stroke-width="18" stroke-linecap="butt" stroke-linejoin="bevel" transform="matrix(0.00436331,0.99999,-0.99999,0.00436331,2354.08,2345.04)" font-family="Ubuntu" font-size="11pt" font-weight="400" font-style="normal"  > <path vector-effect="none" fill-rule="evenodd" d=""/> </g>            <g fill="none" stroke="#000000" stroke-opacity="1" stroke-width="18" stroke-linecap="butt" stroke-linejoin="bevel" transform="matrix(0.00436331,0.99999,-0.99999,0.00436331,2354.08,2345.04)" font-family="Ubuntu" font-size="11pt" font-weight="400" font-style="normal"  > <polyline fill="none" vector-effect="none" points="0,9 6.48683,9 " /> </g>      <g fill="#0030c1" fill-opacity="1" stroke="#0030c1" stroke-opacity="1" stroke-width="1" stroke-linecap="square" stroke-linejoin="bevel" transform="matrix(0.00436331,0.99999,-0.99999,0.00436331,2346.61,2351.56)" font-family="Ubuntu" font-size="11pt" font-weight="400" font-style="normal"  > <circle cx="1.5" cy="1.5" r="1.5"/> </g>                  <g fill="none" stroke="#000000" stroke-opacity="1" stroke-width="18" stroke-linecap="butt" stroke-linejoin="bevel" transform="matrix(0.00436331,0.99999,-0.99999,0.00436331,2360.14,2358.09)" font-family="Ubuntu" font-size="11pt" font-weight="400" font-style="normal"  > <path vector-effect="none" fill-rule="evenodd" d=""/> </g>            <g fill="none" stroke="#000000" stroke-opacity="1" stroke-width="18" stroke-linecap="butt" stroke-linejoin="bevel" transform="matrix(0.00436331,0.99999,-0.99999,0.00436331,2360.14,2358.09)" font-family="Ubuntu" font-size="11pt" font-weight="400" font-style="normal"  > <polyline fill="none" vector-effect="none" points="-18,15 6.48683,15 " /> </g>      <g fill="#808080" fill-opacity="1" stroke="#808080" stroke-opacity="1" stroke-width="1" stroke-linecap="square" stroke-linejoin="bevel" transform="matrix(0.00436331,0.99999,-0.99999,0.00436331,2360.17,2364.58)" font-family="Ubuntu" font-size="11pt" font-weight="400" font-style="normal"  > <circle cx="15" cy="15" r="15"/> </g>                  <g fill="none" stroke="#000000" stroke-opacity="1" stroke-width="18" stroke-linecap="butt" stroke-linejoin="bevel" transform="matrix(0.00436331,0.99999,-0.99999,0.00436331,2365.59,2396.78)" font-family="Ubuntu" font-size="11pt" font-weight="400" font-style="normal"  > <path vector-effect="none" fill-rule="evenodd" d=""/> </g>            <g fill="none" stroke="#000000" stroke-opacity="1" stroke-width="18" stroke-linecap="butt" stroke-linejoin="bevel" transform="matrix(0.00436331,0.99999,-0.99999,0.00436331,2365.59,2396.78)" font-family="Ubuntu" font-size="11pt" font-weight="400" font-style="normal"  > <polyline fill="none" vector-effect="none" points="-18,20.2857 6.48683,20.2857 " /> </g>      <g fill="#0000ff" fill-opacity="1" stroke="#0000ff" stroke-opacity="1" stroke-width="1" stroke-linecap="square" stroke-linejoin="bevel" transform="matrix(0.00436331,0.99999,-0.99999,0.00436331,2365.62,2403.26)" font-family="Ubuntu" font-size="11pt" font-weight="400" font-style="normal"  > <circle cx="20.2857" cy="20.2857" r="20.2857"/> </g>                  <g fill="none" stroke="#000000" stroke-opacity="1" stroke-width="18" stroke-linecap="butt" stroke-linejoin="bevel" transform="matrix(0.00436331,0.99999,-0.99999,0.00436331,2372.42,2445.87)" font-family="Ubuntu" font-size="11pt" font-weight="400" font-style="normal"  > <path vector-effect="none" fill-rule="evenodd" d=""/> </g>            <g fill="none" stroke="#000000" stroke-opacity="1" stroke-width="18" stroke-linecap="butt" stroke-linejoin="bevel" transform="matrix(0.00436331,0.99999,-0.99999,0.00436331,2372.42,2445.87)" font-family="Ubuntu" font-size="11pt" font-weight="400" font-style="normal"  > <polyline fill="none" vector-effect="none" points="-18,26.9 6.48683,26.9 " /> </g>      <g fill="#0000ff" fill-opacity="1" stroke="#0000ff" stroke-opacity="1" stroke-width="1" stroke-linecap="square" stroke-linejoin="bevel" transform="matrix(0.00436331,0.99999,-0.99999,0.00436331,2372.45,2452.35)" font-family="Ubuntu" font-size="11pt" font-weight="400" font-style="normal"  > <circle cx="26.9" cy="26.9" r="26.9"/> </g>                  <g fill="none" stroke="#000000" stroke-opacity="1" stroke-width="18" stroke-linecap="butt" stroke-linejoin="bevel" transform="matrix(0.00436331,0.99999,-0.99999,0.00436331,2377.03,2508.36)" font-family="Ubuntu" font-size="11pt" font-weight="400" font-style="normal"  > <path vector-effect="none" fill-rule="evenodd" d=""/> </g>            <g fill="none" stroke="#000000" stroke-opacity="1" stroke-width="18" stroke-linecap="butt" stroke-linejoin="bevel" transform="matrix(0.00436331,0.99999,-0.99999,0.00436331,2377.03,2508.36)" font-family="Ubuntu" font-size="11pt" font-weight="400" font-style="normal"  > <polyline fill="none" vector-effect="none" points="-18,31.238 6.48683,31.238 " /> </g>      <g fill="#0000ff" fill-opacity="1" stroke="#0000ff" stroke-opacity="1" stroke-width="1" stroke-linecap="square" stroke-linejoin="bevel" transform="matrix(0.00436331,0.99999,-0.99999,0.00436331,2377.06,2514.85)" font-family="Ubuntu" font-size="11pt" font-weight="400" font-style="normal"  > <circle cx="31.238" cy="31.238" r="31.238"/> </g>                        <g fill="none" stroke="#000000" stroke-opacity="1" stroke-width="18" stroke-linecap="butt" stroke-linejoin="bevel" transform="matrix(0.00436331,0.99999,-0.99999,0.00436331,2377.34,2579.41)" font-family="Ubuntu" font-size="11pt" font-weight="400" font-style="normal"  > <polyline fill="none" vector-effect="none" points="-18,31.238 6.48683,31.238 " /> </g>      <g fill="#0000ff" fill-opacity="1" stroke="#0000ff" stroke-opacity="1" stroke-width="1" stroke-linecap="square" stroke-linejoin="bevel" transform="matrix(0.00436331,0.99999,-0.99999,0.00436331,2377.37,2585.9)" font-family="Ubuntu" font-size="11pt" font-weight="400" font-style="normal"  > <circle cx="31.238" cy="31.238" r="31.238"/> </g>                  <g fill="none" stroke="#000000" stroke-opacity="1" stroke-width="18" stroke-linecap="butt" stroke-linejoin="bevel" transform="matrix(1,0,0,1,2345.08,2345.08)" font-family="Ubuntu" font-size="11pt" font-weight="400" font-style="normal"  > <path vector-effect="none" fill-rule="evenodd" d="M-313.936,2.75416 C-312.457,174.875 -172.47,313.948 0,313.948 C173.389,313.948 313.948,173.389 313.948,0 "/> </g>      <g fill="none" stroke="#000000" stroke-opacity="1" stroke-width="18" stroke-linecap="butt" stroke-linejoin="bevel" transform="matrix(1,0,0,1,2668.03,2333.14)" font-family="Ubuntu" font-size="11pt" font-weight="400" font-style="normal"  > <path vector-effect="none" fill-rule="evenodd" d=""/> </g>            <g fill="none" stroke="#000000" stroke-opacity="1" stroke-width="18" stroke-linecap="butt" stroke-linejoin="bevel" transform="matrix(1,0,0,1,2668.03,2333.14)" font-family="Ubuntu" font-size="11pt" font-weight="400" font-style="normal"  > <polyline fill="none" vector-effect="none" points="-18,11.9397 6.48683,11.9397 " /> </g>      <g fill="#0000ff" fill-opacity="1" stroke="#0000ff" stroke-opacity="1" stroke-width="1" stroke-linecap="square" stroke-linejoin="bevel" transform="matrix(1,0,0,1,2674.52,2333.14)" font-family="Ubuntu" font-size="11pt" font-weight="400" font-style="normal"  > <circle cx="11.9397" cy="11.9397" r="11.9397"/> </g>                        <g fill="none" stroke="#000000" stroke-opacity="1" stroke-width="18" stroke-linecap="butt" stroke-linejoin="bevel" transform="matrix(1,0,0,1,2698.6,2270.08)" font-family="Ubuntu" font-size="11pt" font-weight="400" font-style="normal"  > <polyline fill="none" vector-effect="none" points="-18,75 6.48683,75 " /> </g>      <g fill="#0000ff" fill-opacity="1" stroke="#0000ff" stroke-opacity="1" stroke-width="1" stroke-linecap="square" stroke-linejoin="bevel" transform="matrix(1,0,0,1,2705.09,2333.14)" font-family="Ubuntu" font-size="11pt" font-weight="400" font-style="normal"  > <circle cx="11.9397" cy="11.9397" r="11.9397"/> </g>          <g fill="none" stroke="#000000" stroke-opacity="1" stroke-width="1" stroke-linecap="square" stroke-linejoin="bevel" transform="matrix(1,0,0,1,2728.96,2270.08)" font-family="Arial" font-size="100pt" font-weight="400" font-style="normal"  > <text fill="#000000" fill-opacity="1" stroke="none" xml:space="preserve" x="0" y="121" font-family="Arial" font-size="100pt" font-weight="400" font-style="normal"   >Bifidobacterium adolescentis  (s) </text> </g>                    <g fill="none" stroke="#000000" stroke-opacity="1" stroke-width="18" stroke-linecap="butt" stroke-linejoin="bevel" transform="matrix(-0.999962,0.00872654,-0.00872654,-0.999962,2022.8,2422.9)" font-family="Ubuntu" font-size="11pt" font-weight="400" font-style="normal"  > <polyline fill="none" vector-effect="none" points="-18,75 6.48683,75 " /> </g>      <g fill="url(#gradient1)" stroke="#0000ff" stroke-opacity="1" stroke-width="1" stroke-linecap="square" stroke-linejoin="bevel" transform="matrix(-0.999962,0.00872654,-0.00872654,-0.999962,2015.94,2379.78)" font-family="Ubuntu" font-size="11pt" font-weight="400" font-style="normal"  > <circle cx="31.8264" cy="31.8264" r="31.8264"/> </g>          <g fill="none" stroke="#000000" stroke-opacity="1" stroke-width="1" stroke-linecap="square" stroke-linejoin="bevel" transform="matrix(0.999962,0.00872654,-0.00872654,0.999962,762.709,2273.52)" font-family="Arial" font-size="100pt" font-weight="400" font-style="normal"  > <text fill="#000000" fill-opacity="1" stroke="none" xml:space="preserve" x="0" y="121" font-family="Arial" font-size="100pt" font-weight="400" font-style="normal"   >Bifidobacterium  (g) </text> </g>                                                  <g fill="none" stroke="#000000" stroke-opacity="1" stroke-width="1" stroke-linecap="square" stroke-linejoin="bevel" transform="matrix(1,0,0,1,1,4690.16)" font-family="Ubuntu" font-size="11pt" font-weight="400" font-style="normal"  > <polyline fill="none" vector-effect="none" points="0,5 50,5 " /> </g>      <g fill="none" stroke="#000000" stroke-opacity="1" stroke-width="1" stroke-linecap="square" stroke-linejoin="bevel" transform="matrix(1,0,0,1,1,4690.16)" font-family="Ubuntu" font-size="11pt" font-weight="400" font-style="normal"  > <polyline fill="none" vector-effect="none" points="0,0 0,10 " /> </g>      <g fill="none" stroke="#000000" stroke-opacity="1" stroke-width="1" stroke-linecap="square" stroke-linejoin="bevel" transform="matrix(1,0,0,1,1,4690.16)" font-family="Ubuntu" font-size="11pt" font-weight="400" font-style="normal"  > <polyline fill="none" vector-effect="none" points="50,0 50,10 " /> </g>      <g fill="none" stroke="#000000" stroke-opacity="1" stroke-width="1" stroke-linecap="square" stroke-linejoin="bevel" transform="matrix(1,0,0,1,1,4700.16)" font-family="Ubuntu" font-size="11pt" font-weight="400" font-style="normal"  > <text fill="#000000" fill-opacity="1" stroke="none" xml:space="preserve" x="0" y="14" font-family="Ubuntu" font-size="11pt" font-weight="400" font-style="normal"   >7.70792</text> </g>     </g> </svg> 